<?xml version="1.0" encoding="UTF-8"?><svg id="Calque_1" xmlns="http://www.w3.org/2000/svg" viewBox="0 0 595.45 272.92"><defs><style>.cls-1{fill:#4b732a;}.cls-1,.cls-2,.cls-3,.cls-4,.cls-5,.cls-6,.cls-7{stroke-width:0px;}.cls-2{fill:#3e686c;}.cls-3{fill:#e30613;}.cls-4{fill:#a6d6cc;}.cls-5{fill:#9f8c26;}.cls-6{fill:#ee7402;}.cls-7{fill:#fff;}</style></defs><path class="cls-7" d="M595.45,228.62c0,24.37-19.93,44.3-44.3,44.3H44.3c-24.37,0-44.3-19.94-44.3-44.3V44.3C0,19.94,19.94,0,44.3,0h506.85c24.37,0,44.3,19.94,44.3,44.3v184.32h0Z"/><path class="cls-3" d="M538.13,81.72h-72.5c-5.81,0-10.54,4.72-10.54,10.55s4.73,10.55,10.54,10.55h25.72v92.46c0,5.85,4.71,10.55,10.53,10.55s10.55-4.7,10.55-10.55v-92.46h25.7c5.83,0,10.57-4.73,10.57-10.55s-4.74-10.55-10.57-10.55h0Z"/><path class="cls-4" d="M223.64,103.47c2.18,0,6.43,1.77,7.97,3.31l40.93,44.14c5.5,5.5,15.14,9.51,22.92,9.51h97.81c2.19,0,6.47,1.77,8.03,3.32l44.11,41.71c5.5,5.47,15.12,9.44,22.89,9.44h19.33c3.29,4.55,8.62,7.52,14.66,7.52,10,0,18.89-8.12,18.89-18.14s-8.89-18.12-18.89-18.12c-6.1,0-11.49,3.03-14.76,7.64h-19.23c-2.19,0-6.47-1.74-8.02-3.3l-44.1-41.72c-5.5-5.48-15.14-9.46-22.91-9.46h-101.03s-3.98-2.52-4.76-3.31l-40.94-44.13c-5.5-5.52-15.13-9.52-22.91-9.52"/><path class="cls-7" d="M502.29,211.52c-3.99,0-7.26-3.25-7.26-7.25s3.26-7.25,7.26-7.25,7.26,3.26,7.26,7.25-3.25,7.25-7.26,7.25h0Z"/><path class="cls-2" d="M348.1,193.71h-55.86v-33.28h25.71c5.82,0,10.55-4.72,10.55-10.55s-4.73-10.56-10.55-10.56h-25.71v-33.09c0-8.41,6.85-15.25,15.26-15.25h40.6c5.81,0,10.55-4.72,10.55-10.55s-4.74-10.54-10.55-10.54h-40.6c-20.05,0-36.35,16.3-36.35,36.35v98.03c0,5.83,4.71,10.56,10.53,10.56h66.42c5.81,0,10.55-4.74,10.55-10.56s-4.74-10.55-10.55-10.55h0Z"/><path class="cls-6" d="M100.44,214.96c-29.29,0-46.8-22.41-46.8-44.09v-78.27c0-5.82,4.72-10.54,10.55-10.54s10.55,4.72,10.55,10.54v78.27c0,11.16,9,22.99,25.69,22.99s25.7-11.84,25.7-22.99v-78.27c0-5.82,4.73-10.54,10.55-10.54s10.55,4.72,10.55,10.54v78.27c0,21.68-17.51,44.09-46.8,44.09h0Z"/><path class="cls-7" d="M380.82,157.25h-22.85c-4.49,0-8.12-3.33-8.12-7.42s3.63-7.42,8.12-7.42h22.85c4.47,0,8.13,3.32,8.13,7.42s-3.66,7.42-8.13,7.42"/><path class="cls-1" d="M427.59,214.98c-5.81,0-10.55-4.7-10.55-10.53v-112.17c0-5.83,4.73-10.55,10.55-10.55s10.56,4.72,10.56,10.55v112.17c0,5.83-4.74,10.53-10.56,10.53h0Z"/><path class="cls-7" d="M347.16,211.54c-3.99,0-7.26-3.25-7.26-7.25s3.27-7.23,7.26-7.23,7.26,3.25,7.26,7.23-3.26,7.25-7.26,7.25h0Z"/><path class="cls-7" d="M427.59,99.53c-3.99,0-7.23-3.25-7.23-7.25s3.24-7.25,7.23-7.25,7.26,3.25,7.26,7.25-3.26,7.25-7.26,7.25h0Z"/><path class="cls-4" d="M224.51,82.29h-72.18c-3.33-4.52-8.7-7.46-14.79-7.46-10.1,0-18.29,8.08-18.29,18.04s8.19,18.04,18.29,18.04c6.12,0,11.51-2.97,14.84-7.52h72.14"/><path class="cls-7" d="M136.8,99.98c-4,0-7.25-3.25-7.25-7.25s3.25-7.24,7.25-7.24,7.24,3.25,7.24,7.24-3.24,7.25-7.24,7.25h0Z"/><path class="cls-5" d="M234.5,215.34h-60.65c-5.83,0-10.55-4.73-10.55-10.55s4.72-10.55,10.55-10.55h59.16v-26.8c0-2.19-1.76-6.45-3.32-8.01l-14.75-14.76c-1.56-1.55-5.83-3.31-8.01-3.31h-22.78c-10.81,0-19.61-8.8-19.61-19.62v-26.8c0-7.79,3.99-17.43,9.49-22.93l14.76-14.75c5.5-5.5,15.15-9.5,22.93-9.5h33.71c5.83,0,10.56,4.72,10.56,10.55s-4.73,10.55-10.56,10.55h-33.71c-2.19,0-6.46,1.77-8.01,3.32l-14.76,14.75c-1.55,1.55-3.32,5.82-3.32,8.01v25.32h21.29c7.78,0,17.42,4,22.92,9.5l14.76,14.75c5.51,5.5,9.5,15.15,9.5,22.93v28.27c0,10.8-8.8,19.63-19.61,19.63h0Z"/><path class="cls-7" d="M245.44,65.56c-4,0-7.25-3.26-7.25-7.25s3.26-7.25,7.25-7.25,7.25,3.25,7.25,7.25-3.25,7.25-7.25,7.25h0Z"/></svg>